<svg width="737" height="139" viewBox="0 0 737 139" fill="none" xmlns="http://www.w3.org/2000/svg">
<g clip-path="url(#clip0_104_1078)">
<g clip-path="url(#clip1_104_1078)">
<path d="M68.3362 0.920532C30.6365 0.920532 0 31.557 0 69.2567C0 106.956 30.6365 137.593 68.3362 137.593C106.036 137.593 136.672 106.956 136.672 69.2567C136.672 31.557 106.124 0.920532 68.3362 0.920532Z" fill="#020200"/>
<path d="M113.276 80.293H115.041V80.5579H114.335V82.0588H113.982V80.5579H113.276V80.293ZM31.7842 87.1796H27.8112C26.9283 87.1796 26.4868 86.7382 26.4868 85.767V84.1778C26.4868 83.7363 26.5751 83.3832 26.84 83.1183C27.1049 82.8534 27.3697 82.6768 27.8112 82.6768H30.9013C31.6076 82.6768 32.1374 83.03 32.314 83.7363L32.7554 85.2372H35.5807V83.5597C35.5807 82.412 35.2275 81.5291 34.4329 80.8228C33.6383 80.1164 32.7554 79.7633 31.6959 79.7633H27.1049C26.0454 79.7633 25.0742 80.1164 24.2796 80.911C23.485 81.7057 23.1318 82.5885 23.1318 83.648V86.2967C23.1318 87.3562 23.485 88.3274 24.2796 89.122C25.0742 89.9166 25.9571 90.2697 27.1049 90.2697H31.0779C31.9608 90.2697 32.4022 90.7995 32.4022 91.7707V93.8013C32.4022 93.8013 32.314 94.5959 32.0491 94.8608C31.7842 95.1257 31.5194 95.3022 31.0779 95.3022H27.9878C27.1932 95.3022 26.7517 94.9491 26.4868 94.2428L26.0454 92.5653H23.2201V94.4194C23.2201 95.5671 23.5733 96.45 24.2796 97.1563C24.9859 97.8626 25.9571 98.3041 27.0166 98.3041H31.6959C32.7554 98.3041 33.7266 97.9509 34.4329 97.1563C35.2275 96.3617 35.5807 95.4788 35.5807 94.4194V91.3292C35.5807 90.2697 35.2275 89.3868 34.4329 88.5922C33.6383 87.7976 32.7554 87.4445 31.6959 87.4445M50.5899 81.0876C51.3845 81.8822 51.7377 82.7651 51.7377 83.8246V87.7093C51.7377 88.7688 51.3845 89.74 50.5899 90.4463C49.7953 91.2409 48.9124 91.5941 47.7646 91.5941H42.6438V98.3924H39.3771V79.9399H47.7646C48.8241 79.9399 49.7953 80.293 50.5899 81.0876ZM48.471 84.4426C48.471 84.0012 48.3827 83.648 48.1178 83.3832C47.8529 83.1183 47.5881 82.9417 47.1466 82.9417H42.7321V88.6805H47.1466C47.1466 88.6805 47.8529 88.504 48.1178 88.2391C48.3827 87.9742 48.471 87.6211 48.471 87.1796V84.4426ZM80.9615 90.7995L84.2283 98.3924H80.785L77.7831 91.1526H74.693V98.3924H71.4263V79.9399H79.5489C80.6084 79.9399 81.5796 80.293 82.2859 81.0876C83.0805 81.8822 83.4337 82.7651 83.4337 83.8246V87.003C83.4337 87.7976 83.1688 88.5922 82.7273 89.2986C82.2859 90.0049 81.6679 90.4463 80.9615 90.7112M80.1669 84.3543C80.1669 84.3543 80.0786 83.5597 79.8138 83.2949C79.5489 83.03 79.284 82.8534 78.9309 82.8534H74.693V88.1508H78.9309C78.9309 88.1508 79.6372 87.9742 79.8138 87.7093C80.0786 87.4445 80.1669 87.0913 80.1669 86.6499V84.3543ZM85.4643 82.8534H90.1437V98.3041H93.4104V82.8534H98.178V79.8516H85.4643V82.8534ZM109.038 87.3562H105.065C104.182 87.3562 103.74 86.9147 103.74 85.9436V84.3543C103.74 83.9129 103.829 83.5597 104.093 83.2949C104.358 83.03 104.623 82.8534 105.065 82.8534H108.155C108.861 82.8534 109.391 83.2066 109.567 83.9129L110.009 85.4138H112.834V83.7363C112.834 82.5885 112.481 81.7056 111.686 80.9993C110.892 80.293 110.009 79.9399 108.949 79.9399H104.358C103.299 79.9399 102.328 80.293 101.621 81.0876C100.827 81.8822 100.474 82.7651 100.474 83.8246V86.4733C100.474 87.5328 100.827 88.504 101.621 89.2986C102.416 90.0932 103.299 90.4463 104.358 90.4463H108.331C109.214 90.4463 109.656 90.9761 109.656 91.9472V93.9779C109.656 93.9779 109.567 94.7725 109.303 95.0374C109.038 95.3023 108.773 95.4788 108.331 95.4788H105.241C104.447 95.4788 104.005 95.1257 103.74 94.4194L103.299 92.7418H100.474V94.5959C100.474 95.7437 100.827 96.6266 101.621 97.3329C102.328 98.0392 103.299 98.4807 104.358 98.4807H108.949C110.009 98.4807 110.98 98.1275 111.775 97.3329C112.569 96.5383 112.922 95.6554 112.922 94.5959V91.5058C112.922 90.4463 112.569 89.5634 111.775 88.7688C110.98 87.9742 110.097 87.6211 109.038 87.6211M117.072 80.7345L116.366 81.7939L115.659 80.7345H115.395V82.5003H115.659V81.3525C115.659 81.3525 115.659 81.2642 115.659 81.1759C115.659 81.1759 115.659 81.2642 115.748 81.3525L116.366 82.2354L116.895 81.3525V82.5003H117.249V80.7345H116.984H117.072ZM66.2172 81.2642C67.0118 81.9705 67.3649 82.9417 67.3649 84.0012V94.5959C67.3649 95.7437 67.0118 96.6266 66.2172 97.4212C65.4226 98.2158 64.5397 98.569 63.4802 98.569H59.0657C58.0062 98.569 57.0351 98.2158 56.2404 97.4212C55.4458 96.6266 55.0927 95.7437 55.0927 94.5959V84.0012C55.0927 82.9417 55.4458 82.0588 56.2404 81.2642C57.0351 80.4696 57.918 80.1164 59.0657 80.1164H63.4802C64.5397 80.1164 65.5109 80.4696 66.2172 81.2642ZM64.0982 84.6192C64.0982 84.6192 64.0099 83.8246 63.7451 83.5597C63.4802 83.2949 63.2153 83.1183 62.7739 83.1183H59.6837C59.6837 83.1183 58.9774 83.2949 58.7126 83.5597C58.4477 83.8246 58.3594 84.1778 58.3594 84.6192V94.0662C58.3594 94.0662 58.4477 94.8608 58.7126 95.1257C58.9774 95.3905 59.2423 95.5671 59.6837 95.5671H62.7739C62.7739 95.5671 63.4802 95.3905 63.7451 95.1257C64.0099 94.8608 64.0982 94.5076 64.0982 94.0662V84.6192ZM77.8714 32.9698H42.7321L37.3465 41.5339H72.4857L77.8714 32.9698ZM91.2031 58.5738H85.9058L80.5201 67.1379H96.5888L101.974 75.702H112.216L85.0229 32.7049L63.2153 67.2261H39.2888L44.7628 58.6621H59.5955L64.9811 50.098H31.8725L26.4868 58.6621H34.4329L23.5733 75.7902H68.0713L84.9346 48.9502L91.0266 58.6621L91.2031 58.5738Z" fill="white"/>
<path d="M244.386 74.6424L212.867 105.191H172.695L222.667 55.5718C241.208 37.2076 250.213 34.1175 281.909 34.1175H407.104L379.911 60.6926H285.441C261.779 60.6926 256.747 62.5467 244.298 74.5541M375.85 64.9305H286.059C262.221 64.9305 258.513 66.7846 247.653 77.556L220.107 105.102H257.365L266.194 96.2734C272.021 90.4463 274.67 89.8282 286.5 89.8282H350.952L375.85 64.9305ZM385.561 105.102L456.811 34.0292H412.578L341.505 105.102H385.561Z" fill="black"/>
<path d="M463.344 105.367V86.2965C463.344 70.0512 475.351 59.633 493.98 59.633H533.622V55.5717H463.344V34.3822H529.649C545.365 34.3822 556.754 43.9175 556.754 56.9843C556.754 71.0224 546.424 80.1162 530.444 80.1162H487.535V84.1776H555.783V105.455H463.432L463.344 105.367Z" fill="black"/>
<path d="M559.491 105.279V84.001H625.709V79.9397H559.491V59.4565H625.709V55.3952H559.491V34.1174H625.444C641.424 34.1174 650.695 40.9157 650.695 52.8348C650.695 61.6637 646.721 67.4908 639.393 69.2566L637.981 69.6098L639.393 70.0512C647.781 72.4351 650.695 79.8514 650.695 86.0317C650.695 98.3039 641.866 105.279 626.415 105.279H559.491Z" fill="black"/>
<path d="M415.335 104.94C413.201 104.94 411.351 104.229 409.929 102.664C408.506 101.099 407.795 99.3921 407.795 97.1159C407.795 94.8397 408.506 93.1325 409.929 91.5676C411.351 90.0027 413.201 89.2914 415.335 89.2914C417.469 89.2914 419.318 90.0027 420.741 91.5676C422.163 93.1325 422.875 94.9819 422.875 97.1159C422.875 99.2498 422.163 101.099 420.741 102.664C419.318 104.087 417.611 104.94 415.335 104.94ZM410.782 92.4212C409.644 93.7016 408.933 95.2665 408.933 97.1159C408.933 98.9653 409.502 100.53 410.782 101.811C411.92 103.091 413.485 103.802 415.335 103.802C417.184 103.802 418.607 103.091 419.887 101.811C421.167 100.53 421.737 98.9653 421.737 97.1159C421.737 95.2665 421.167 93.7016 419.887 92.4212C418.607 91.1408 417.184 90.4295 415.335 90.4295C413.485 90.4295 412.063 91.1408 410.782 92.4212ZM413.627 98.254V101.384H412.205V92.7057H415.192C416.331 92.7057 417.042 92.848 417.611 93.2748C418.18 93.7016 418.464 94.4129 418.464 95.4087C418.464 96.8314 417.895 97.6849 416.9 97.9695L418.607 101.384H417.184L415.477 98.254H413.627ZM413.627 93.9861V97.1159H415.619C415.619 97.1159 416.615 97.1159 416.757 96.6891C417.042 96.4046 417.184 96.12 417.184 95.551C417.184 94.9819 417.042 94.5551 416.757 94.4129C416.473 94.1283 415.904 94.1283 415.335 94.1283H413.77L413.627 93.9861Z" fill="black"/>
<path d="M730.42 34.2057H671.354C668.038 34.2057 665.35 36.8937 665.35 40.2094V99.2752C665.35 102.591 668.038 105.279 671.354 105.279H730.42C733.736 105.279 736.424 102.591 736.424 99.2752V40.2094C736.424 36.8937 733.736 34.2057 730.42 34.2057Z" fill="black"/>
<path d="M728.125 74.2892H673.65V75.7901H728.125V74.2892Z" fill="white"/>
<path d="M673.65 82.5881H675.592V88.1504H679.212V89.7396H673.65V82.5881Z" fill="white"/>
<path d="M680.184 82.5884H682.126V89.7399H680.184V82.5884Z" fill="white"/>
<path d="M689.366 89.74H686.629C684.333 89.74 683.185 88.5922 683.185 86.6499V85.5904C683.185 83.7363 684.333 82.5002 686.629 82.5002H689.366V84.0895H686.717C685.569 84.0895 685.216 84.5309 685.216 85.5904V86.5616C685.216 87.621 685.569 88.0625 686.805 88.0625H689.454V89.6517L689.366 89.74Z" fill="white"/>
<path d="M690.249 82.5884H696.252V84.1777H692.103V85.4137H696.252V86.9146H692.103V88.1507H696.252V89.7399H690.249V82.5884Z" fill="white"/>
<path d="M697.4 84.5309C697.4 83.2066 698.283 82.5002 699.342 82.5002C700.578 82.5002 701.196 83.2066 701.638 84.266L703.227 88.0625C703.227 88.0625 703.227 88.2391 703.403 88.2391C703.492 88.2391 703.58 88.2391 703.58 88.0625V82.5885H705.522V87.8859C705.522 89.2103 704.64 89.9166 703.58 89.9166C702.344 89.9166 701.726 89.2103 701.285 88.1508L699.695 84.3543C699.695 84.3543 699.695 84.1778 699.519 84.1778C699.43 84.1778 699.342 84.1777 699.342 84.3543V89.8283H697.4V84.6192V84.5309Z" fill="white"/>
<path d="M708.436 86.5615C707.112 86.2083 706.494 85.502 706.494 84.5308C706.494 83.2948 707.377 82.5884 708.878 82.5884H712.586V84.1777H708.878C708.878 84.1777 708.348 84.3542 708.348 84.5308C708.348 84.7957 708.525 84.884 708.878 84.9723L710.644 85.502C712.144 85.9434 712.851 86.4732 712.851 87.6209C712.851 88.7687 711.968 89.7399 710.114 89.7399H706.759V88.1507H710.379C710.908 88.1507 710.997 87.9741 710.997 87.7092C710.997 87.4444 710.82 87.2678 710.114 87.0912L708.436 86.5615Z" fill="white"/>
<path d="M713.823 82.5884H719.826V84.1777H715.677V85.4137H719.826V86.9146H715.677V88.1507H719.826V89.7399H713.823V82.5884Z" fill="white"/>
<path d="M728.125 85.5903V86.6498C728.125 88.5038 726.977 89.7399 724.77 89.7399H721.062V82.5884H724.77C727.066 82.5884 728.125 83.8245 728.125 85.6786V85.5903ZM722.916 84.0894V88.239H724.505C725.741 88.239 726.094 87.7975 726.094 86.6498V85.5903C726.094 84.4425 725.83 84.0011 724.593 84.0011H722.916V84.0894Z" fill="white"/>
<path d="M680.095 94.7725C680.095 96.3617 679.213 96.8032 677.182 96.8032H675.504V99.187H673.562V92.0355H677.182C679.124 92.0355 680.095 92.5653 680.095 94.0662V94.7725ZM678.153 94.1545C678.153 93.713 677.888 93.4482 677.27 93.4482H675.504V95.3905H677.27C677.976 95.3905 678.153 95.1257 678.153 94.6842V94.1545Z" fill="white"/>
<path d="M685.658 99.1869L683.892 96.9797C683.892 96.9797 683.45 96.2734 683.45 95.9202C683.45 95.3022 683.892 94.949 684.51 94.949H685.481C685.481 94.949 686.099 94.6842 686.099 94.331V93.9778C686.099 93.9778 685.922 93.3598 685.481 93.3598H683.009V99.0103H681.066V91.8589H685.304C687.158 91.8589 688.041 92.3886 688.041 93.8013V94.2427C688.041 95.4788 686.982 96.0968 685.834 96.0968H685.658L688.041 99.0103H685.746L685.658 99.1869Z" fill="white"/>
<path d="M692.809 99.2753H692.191C689.895 99.2753 688.748 98.0392 688.748 96.0969V95.1257C688.748 93.1833 689.895 91.9473 692.191 91.9473H692.809C695.104 91.9473 696.252 93.1833 696.252 95.1257V96.0969C696.252 98.0392 695.104 99.2753 692.809 99.2753ZM692.103 97.7744H692.809C693.868 97.7744 694.221 97.3329 694.221 96.1852V95.0374C694.221 93.8896 693.868 93.5365 692.809 93.5365H692.103C691.043 93.5365 690.69 93.9779 690.69 95.0374V96.1852C690.69 97.3329 691.043 97.7744 692.103 97.7744Z" fill="white"/>
<path d="M704.551 95.1256V96.1851C704.551 98.0392 703.404 99.2752 701.196 99.2752H697.488V92.1238H701.196C703.492 92.1238 704.551 93.3598 704.551 95.2139V95.1256ZM699.342 93.6247V97.7743H700.931C702.168 97.7743 702.521 97.3329 702.521 96.1851V95.1256C702.521 93.9779 702.256 93.5364 701.02 93.5364H699.342V93.6247Z" fill="white"/>
<path d="M705.611 96.6266V92.0355H707.553V96.8032C707.553 97.5095 707.818 97.7744 708.613 97.7744H709.672C710.379 97.7744 710.732 97.4212 710.732 96.8032V92.0355H712.674V96.6266C712.674 98.3041 711.968 99.3636 709.761 99.3636H708.701C706.582 99.3636 705.699 98.3924 705.699 96.6266H705.611Z" fill="white"/>
<path d="M719.915 99.187H717.178C714.882 99.187 713.734 98.0392 713.734 96.0969V95.0374C713.734 93.1833 714.882 91.9473 717.178 91.9473H719.915V93.5365H717.266C716.118 93.5365 715.765 93.9779 715.765 95.0374V96.0086C715.765 97.0681 716.118 97.5095 717.354 97.5095H720.003V99.0987L719.915 99.187Z" fill="white"/>
<path d="M723.534 93.6247H720.797V92.0355H728.125V93.6247H725.388V99.187H723.445V93.6247H723.534Z" fill="white"/>
<path d="M687.424 47.8906L681.42 53.7178H673.739L683.362 44.1825C686.894 40.6509 688.66 40.1212 694.752 40.1212H718.767L713.557 45.242H695.458C690.955 45.242 689.984 45.5951 687.6 47.8906H687.424ZM712.675 46.0366H695.458C690.867 46.0366 690.161 46.3897 688.13 48.4204L682.833 53.7178H689.984L691.662 52.0403C692.809 50.8925 693.251 50.8042 695.546 50.8042H707.907L712.675 46.0366ZM714.529 53.7178L728.214 40.1212H719.738L706.141 53.7178H714.617H714.529Z" fill="white"/>
<path d="M727.242 67.4026C727.242 67.4026 726.801 67.4026 726.624 67.1378C726.447 66.8729 726.359 66.7846 726.359 66.5197C726.359 66.2549 726.359 66.0783 726.624 65.9017C726.801 65.7251 726.977 65.6368 727.242 65.6368C727.507 65.6368 727.683 65.6368 727.86 65.9017C728.037 66.1666 728.125 66.2549 728.125 66.5197C728.125 66.7846 728.125 66.9612 727.86 67.1378C727.683 67.3143 727.507 67.4026 727.242 67.4026ZM727.242 65.8134C727.242 65.8134 726.889 65.8134 726.712 65.99C726.536 66.1666 726.536 66.2549 726.536 66.5197C726.536 66.7846 726.536 66.8729 726.712 67.0495C726.889 67.2261 726.977 67.2261 727.242 67.2261C727.507 67.2261 727.595 67.2261 727.772 67.0495C727.948 66.8729 727.948 66.7846 727.948 66.5197C727.948 66.2549 727.948 66.1666 727.772 65.99C727.595 65.8134 727.507 65.8134 727.242 65.8134ZM727.065 66.6963V67.0495H726.889V66.0783H727.242C727.242 66.0783 727.419 66.0783 727.507 66.0783C727.507 66.0783 727.595 66.1666 727.595 66.2549C727.595 66.3432 727.595 66.4314 727.595 66.4314C727.595 66.4314 727.595 66.4314 727.507 66.5197L727.683 66.8729H727.507L727.33 66.5197H727.154L727.065 66.6963ZM727.065 66.2549V66.608H727.242H727.33C727.33 66.608 727.33 66.608 727.33 66.5197C727.33 66.4314 727.33 66.3432 727.154 66.3432H726.977L727.065 66.2549Z" fill="white"/>
<path d="M673.65 67.4026V59.7214H679.477V60.7809H674.798V62.9882H679.477V64.0476H674.798V67.4909H673.65V67.4026Z" fill="white"/>
<path d="M686.629 63.7828V64.7539C686.629 65.6368 686.364 66.2549 685.923 66.7846C685.481 67.2261 684.775 67.4909 683.804 67.4909H683.009C682.038 67.4909 681.331 67.2261 680.89 66.7846C680.449 66.3432 680.184 65.6368 680.184 64.7539V63.7828C680.184 62.8999 680.449 62.2818 680.89 61.7521C681.331 61.3106 682.038 61.0458 683.009 61.0458H683.804C684.686 61.0458 685.393 61.3106 685.923 61.7521C686.364 62.1935 686.629 62.8999 686.629 63.7828ZM685.481 63.6062C685.481 63.0764 685.393 62.635 685.128 62.3701C684.951 62.1053 684.51 62.017 683.98 62.017H682.921C682.391 62.017 682.038 62.1053 681.773 62.3701C681.508 62.635 681.42 62.9881 681.42 63.6062V64.9305C681.42 65.4603 681.508 65.9017 681.773 66.1666C682.038 66.4314 682.391 66.5197 682.921 66.5197H683.98C684.51 66.5197 684.951 66.4314 685.128 66.1666C685.304 65.9017 685.481 65.5485 685.481 64.9305V63.6062Z" fill="white"/>
<path d="M687.6 63.1647C687.6 62.5467 687.776 62.1052 688.218 61.7521C688.571 61.3989 689.101 61.3106 689.719 61.3106H691.396V62.2818H689.63C689.63 62.2818 689.101 62.2818 688.924 62.4584C688.747 62.5467 688.747 62.8115 688.747 63.0764V67.4026H687.6V63.1647Z" fill="white"/>
<path d="M692.368 67.4026V61.2224H699.519C700.314 61.2224 700.843 61.3989 701.197 61.8404C701.55 62.1935 701.726 62.7233 701.726 63.3413V67.4026H700.578V63.253C700.578 63.253 700.578 62.635 700.314 62.4584C700.137 62.2818 699.872 62.2818 699.519 62.2818H697.577V67.4026H696.429V62.2818H693.427V67.4026H692.279H692.368Z" fill="white"/>
<path d="M708.613 61.2224V67.4026H705.169C704.375 67.4026 703.845 67.226 703.492 66.8729C703.139 66.5197 702.962 65.99 702.962 65.1954V61.2224H704.11V65.2837C704.11 65.2837 704.11 65.99 704.375 66.0783C704.551 66.2549 704.816 66.3431 705.169 66.3431H707.553V61.2224H708.701H708.613Z" fill="white"/>
<path d="M709.849 59.7214H710.997V67.4026H709.849V59.7214Z" fill="white"/>
<path d="M717.795 63.4296V67.4026H713.822C713.204 67.4026 712.762 67.3143 712.409 67.0495C712.056 66.7846 711.879 66.4314 711.879 65.9017C711.879 65.5485 711.968 65.2837 712.232 65.0188C712.497 64.7539 712.85 64.4891 713.204 64.1359L715.941 62.1935H712.144V61.2224H715.323C716.117 61.2224 716.647 61.3989 717.088 61.8404C717.442 62.2818 717.706 62.8116 717.706 63.4296H717.795ZM713.822 66.3431H716.735V62.9881L713.822 65.1071C713.822 65.1071 713.469 65.372 713.38 65.4603C713.292 65.5485 713.204 65.7251 713.204 65.9017C713.204 66.0783 713.204 66.1666 713.38 66.2549C713.469 66.2549 713.645 66.3431 713.822 66.3431Z" fill="white"/>
<path d="M720.091 67.4026V66.3432H722.386V61.0458C722.386 61.0458 722.386 60.8692 722.386 60.7809C722.386 60.7809 722.298 60.7809 722.121 60.7809H720.356V59.7214H722.298C722.739 59.7214 723.093 59.8097 723.269 60.0746C723.446 60.3395 723.534 60.6043 723.534 61.1341V66.4315H725.565V67.4909H720.002L720.091 67.4026Z" fill="white"/>
</g>
</g>
<defs>
<clipPath id="clip0_104_1078">
<rect width="736.424" height="139" fill="white"/>
</clipPath>
<clipPath id="clip1_104_1078">
<rect width="736.424" height="136.672" fill="white" transform="translate(0 0.920532)"/>
</clipPath>
</defs>
</svg>
