<svg width="215" height="40" viewBox="0 0 215 40" fill="none" xmlns="http://www.w3.org/2000/svg">
<g clip-path="url(#clip0)">
<path d="M19.9138 39.8277C30.912 39.8277 39.8277 30.912 39.8277 19.9138C39.8277 8.91573 30.912 0 19.9138 0C8.91573 0 0 8.91573 0 19.9138C0 30.912 8.91573 39.8277 19.9138 39.8277Z" fill="black"/>
<path d="M33.0154 23.12H33.52V23.2123H33.3169V23.6431H33.2123V23.2123H33.0092V23.12H33.0154ZM9.26154 25.12H8.11693C7.85847 25.12 7.72924 24.9785 7.72924 24.6954V24.2462C7.72924 24.1169 7.76001 24.0123 7.83385 23.9262C7.90154 23.84 7.99385 23.8031 8.11078 23.8031H9.00924C9.21847 23.8031 9.36616 23.9077 9.4277 24.1108L9.55078 24.5477H10.3754V24.0677C10.3754 23.7477 10.2708 23.4831 10.0554 23.2677C9.83385 23.0523 9.56924 22.9477 9.25539 22.9477H7.92001C7.60616 22.9477 7.33539 23.0585 7.1077 23.28C6.88616 23.5016 6.77539 23.7723 6.77539 24.08V24.8554C6.77539 25.1692 6.88616 25.44 7.1077 25.6677C7.33539 25.8892 7.60616 26 7.92001 26H9.06462C9.31693 26 9.44616 26.1477 9.44616 26.4369V27.0277C9.44616 27.1508 9.40924 27.2616 9.34154 27.3416C9.2677 27.4277 9.17539 27.4708 9.06462 27.4708H8.15385C7.92616 27.4708 7.78462 27.3662 7.72924 27.1631L7.60616 26.6708H6.77539V27.2062C6.77539 27.5323 6.88001 27.7969 7.09539 28.0123C7.31077 28.2277 7.57539 28.3323 7.90154 28.3323H9.25539C9.56924 28.3323 9.84001 28.2216 10.0615 27.9939C10.2831 27.7723 10.3939 27.5016 10.3939 27.1816V26.2708C10.3939 25.9569 10.2831 25.6923 10.0615 25.4646C9.84001 25.2369 9.56924 25.12 9.26154 25.12ZM14.7569 23.28C14.9785 23.5016 15.0892 23.7662 15.0892 24.08V25.2123C15.0892 25.5262 14.9785 25.7969 14.7569 26.0185C14.5292 26.24 14.2585 26.3508 13.9446 26.3508H12.4615V28.3262H11.5139V22.9477H13.9446C14.2585 22.9477 14.5292 23.0585 14.7569 23.28ZM14.1415 24.2523C14.1415 24.1231 14.1046 24.0185 14.0308 23.9323C13.9631 23.8462 13.8646 23.8092 13.7539 23.8092H12.4554V25.4769H13.7539C13.8646 25.4769 13.9569 25.4339 14.0308 25.3539C14.1046 25.2677 14.1415 25.1631 14.1415 25.0339V24.2523ZM23.6062 26.1046L24.5477 28.3262H23.5385L22.6646 26.2216H21.76V28.3262H20.8062V22.9477H23.1815C23.5015 22.9477 23.7723 23.0585 23.9939 23.28C24.2154 23.5016 24.3262 23.7723 24.3262 24.08V25.0154C24.3262 25.2616 24.2585 25.4831 24.1231 25.68C23.9877 25.8708 23.8092 26.0123 23.6062 26.1046ZM23.3785 24.2523C23.3785 24.1231 23.3477 24.0185 23.2739 23.9323C23.2062 23.8462 23.1139 23.8092 23.0031 23.8092H21.76V25.3477H23.0031C23.1139 25.3477 23.2062 25.3046 23.2739 25.2308C23.3415 25.1508 23.3785 25.0462 23.3785 24.9169V24.2523ZM24.9292 23.8154H26.2954V28.3262H27.2492V23.8154H28.6277V22.9477H24.9292V23.8154ZM31.7969 25.12H30.6523C30.4 25.12 30.2708 24.9785 30.2708 24.6954V24.2462C30.2708 24.1169 30.3077 24.0123 30.3754 23.9262C30.4431 23.84 30.5415 23.8031 30.6523 23.8031H31.5569C31.7662 23.8031 31.9077 23.9077 31.9754 24.1108L32.0985 24.5477H32.9231V24.0677C32.9231 23.7477 32.8123 23.4831 32.5969 23.2677C32.3754 23.0523 32.1108 22.9477 31.7908 22.9477H30.4615C30.1477 22.9477 29.8708 23.0585 29.6554 23.28C29.4339 23.5016 29.3169 23.7723 29.3169 24.08V24.8554C29.3169 25.1692 29.4339 25.44 29.6554 25.6677C29.8769 25.8892 30.1477 26 30.4615 26H31.6062C31.8646 26 31.9877 26.1477 31.9877 26.4369V27.0277C31.9877 27.1508 31.9508 27.2616 31.8831 27.3416C31.8154 27.4277 31.7169 27.4708 31.6 27.4708H30.6892C30.4615 27.4708 30.32 27.3662 30.2646 27.1631L30.1415 26.6708H29.3108V27.2062C29.3108 27.5323 29.4215 27.7969 29.6308 28.0123C29.8462 28.2277 30.1108 28.3323 30.4369 28.3323H31.7846C32.1046 28.3323 32.3754 28.2216 32.5969 27.9939C32.8185 27.7723 32.9292 27.5016 32.9292 27.1816V26.2708C32.9292 25.9569 32.8185 25.6923 32.5846 25.4646C32.3754 25.2369 32.1108 25.12 31.7969 25.12ZM34.1415 23.12L33.9385 23.4339L33.7354 23.12H33.6492V23.6431H33.7354V23.3231C33.7354 23.3046 33.7231 23.2862 33.7231 23.2677C33.7354 23.2862 33.7477 23.3046 33.7539 23.3169L33.9262 23.5754H33.9446L34.1108 23.3231C34.1231 23.3046 34.1292 23.2862 34.1354 23.2677C34.1354 23.2923 34.1354 23.3108 34.1354 23.3231V23.6431H34.2277V23.12H34.1415ZM19.3108 23.2739C19.5385 23.4892 19.6492 23.7662 19.6492 24.0739V27.1631C19.6492 27.4892 19.5385 27.76 19.3108 27.9816C19.0831 28.2031 18.8185 28.32 18.4985 28.32H17.2123C16.8923 28.32 16.6215 28.2092 16.4 27.9816C16.1785 27.76 16.0615 27.4892 16.0615 27.1631V24.0739C16.0615 23.7662 16.1723 23.4954 16.4 23.2739C16.6215 23.0523 16.8923 22.9416 17.2123 22.9416H18.4985C18.8246 22.9477 19.0892 23.0585 19.3108 23.2739ZM18.7015 24.2523C18.7015 24.1231 18.6646 24.0185 18.5908 23.9323C18.5231 23.8462 18.4308 23.8092 18.32 23.8092H17.4092C17.2923 23.8092 17.2 23.8523 17.1262 23.9323C17.0585 24.0185 17.0215 24.1231 17.0215 24.2523V27.0092C17.0215 27.1323 17.0523 27.2369 17.1262 27.3231C17.2 27.4092 17.2862 27.4523 17.4092 27.4523H18.32C18.4308 27.4523 18.5231 27.4092 18.5908 27.3231C18.6646 27.2369 18.7015 27.1323 18.7015 27.0092V24.2523ZM22.7139 9.21848H12.4739L10.9108 11.7108L21.1446 11.7046L22.7139 9.21848ZM26.5908 16.6831H25.0585L23.4831 19.1754H28.1662L29.7415 21.6616H32.7323L24.8062 9.13232L18.4431 19.1754H11.4831L13.0831 16.6831H17.4092L18.9846 14.1908H9.33539L7.76001 16.6831H10.0739L6.92308 21.6677H19.8892L24.8062 13.8585L26.5908 16.6831Z" fill="white"/>
<path d="M189.858 30.7386C189.858 32.8986 191.612 34.6463 193.766 34.6463H208.782C210.942 34.6463 212.689 32.8925 212.689 30.7386V7.18786C212.689 5.02786 210.942 3.28017 208.782 3.3294H193.766C191.606 3.27402 189.858 5.02786 189.858 7.18786V30.7386Z" fill="#154271"/>
<path d="M193.772 4.17261C192.105 4.17261 190.757 5.52645 190.757 7.18799V30.7326C190.757 32.4003 192.111 33.748 193.772 33.748H208.788C210.455 33.748 211.803 32.4003 211.803 30.7326V7.18799C211.803 5.5203 210.449 4.17261 208.788 4.17261H193.772V4.17261Z" fill="white"/>
<path d="M193.754 4.63408C192.339 4.63408 191.194 5.7787 191.194 7.19408V30.7387C191.194 32.1541 192.339 33.2987 193.754 33.2987H208.769C210.185 33.2987 211.329 32.1541 211.329 30.7387V7.18793C211.329 5.77255 210.185 4.62793 208.769 4.62793H193.754V4.63408Z" fill="#154271"/>
<path d="M212.702 33.8156C212.702 33.3602 213.071 32.991 213.532 32.991C213.988 32.991 214.357 33.3602 214.357 33.8156C214.357 34.2771 213.988 34.6464 213.532 34.6464C213.071 34.6464 212.702 34.2771 212.702 33.8156ZM214.228 33.8156C214.228 33.4156 213.932 33.1017 213.532 33.1017C213.126 33.1017 212.831 33.4156 212.831 33.8156C212.831 34.2217 213.126 34.5356 213.532 34.5356C213.932 34.5356 214.228 34.2217 214.228 33.8156ZM213.945 34.2771H213.809L213.545 33.8525H213.335V34.2771H213.225V33.354H213.631C213.877 33.354 213.957 33.4464 213.957 33.6002C213.957 33.7848 213.828 33.8525 213.668 33.8525L213.945 34.2771ZM213.508 33.7664C213.637 33.7664 213.834 33.791 213.834 33.6002C213.834 33.4525 213.717 33.4402 213.6 33.4402H213.335V33.7664H213.508Z" fill="#154271"/>
<path d="M194.462 8.68319H194.88C195.108 8.68319 195.292 8.83088 195.292 9.06473C195.292 9.29857 195.102 9.44011 194.812 9.44011H194.462V8.68319ZM193.692 10.3693C193.692 10.4616 193.637 10.5232 193.532 10.5232H193.28V10.8555H194.892V10.5232H194.615C194.511 10.5232 194.455 10.4678 194.455 10.3693V9.77242H194.905C195.655 9.77242 196.055 9.5755 196.055 9.05857C196.055 8.54165 195.662 8.34473 194.985 8.34473H193.274V8.67703H193.526C193.631 8.67703 193.686 8.73242 193.686 8.83088V10.3693H193.692Z" fill="white"/>
<path d="M199.317 9.86484H199.126C199.022 9.86484 198.966 9.92023 198.966 10.0187V10.8864H198.609L198.517 10.7018C198.277 10.8741 197.975 10.9295 197.711 10.9295C196.862 10.9295 196.265 10.4864 196.265 9.63715C196.265 8.78177 196.843 8.271 197.711 8.271C197.951 8.271 198.24 8.34484 198.449 8.5233L198.529 8.31407H198.898V9.19407H198.517C198.505 8.81869 198.265 8.62177 197.846 8.62177C197.372 8.62177 197.145 8.94792 197.145 9.60023C197.145 10.2525 197.372 10.5664 197.846 10.5664C198 10.5664 198.191 10.511 198.191 10.3325V10.0125C198.191 9.92023 198.135 9.85869 198.031 9.85869H197.822V9.52638H199.311V9.86484H199.317Z" fill="white"/>
<path d="M202.431 10.5665C202.154 10.5234 202.148 10.4619 202.043 10.2342L201.237 8.37573H200.622L199.852 10.0927C199.735 10.345 199.655 10.5419 199.305 10.5727V10.8619H200.535V10.5727L200.492 10.5665C200.394 10.5542 200.178 10.5542 200.178 10.4311C200.178 10.388 200.203 10.3142 200.228 10.2711L200.277 10.1542H201.249L201.305 10.2711C201.317 10.3203 201.36 10.4127 201.36 10.4619C201.36 10.5727 201.114 10.5665 201.028 10.5727V10.8619H202.474V10.5727L202.431 10.5665ZM200.394 9.85266L200.769 9.00958L201.114 9.85266H200.394Z" fill="white"/>
<path d="M209.483 11.8709C209.871 11.4771 209.883 10.5294 209.883 10.5294C209.489 9.81555 208.677 9.60631 208.677 9.60631C208.492 9.47708 208.345 9.59401 208.289 9.6617C208.289 9.6617 208.289 9.6617 208.283 9.6617L201.717 5.64939C201.237 5.40324 200.579 6.24631 200.412 6.56016C200.345 6.67093 200.56 6.83708 200.708 6.92939C201.305 7.31708 201.588 6.32016 201.809 5.96324L208.16 9.96939C208.148 9.97555 208.179 10.3017 208.197 10.314C208.191 10.8371 208.609 11.2679 208.363 12.0248C208.295 13.0832 207.151 13.2925 206.529 13.9509C205.957 14.5109 204.825 14.4432 204.351 14.9048C204.345 14.9109 204.339 14.9171 204.339 14.9171L204.332 14.8986C203.926 13.8279 203.68 13.7663 203.557 13.3417C203.059 13.1509 202.468 13.1079 201.988 13.3663C201.526 13.6679 201.299 14.234 201.379 14.7325C201.391 15.2432 202.111 15.8032 202.492 16.0248C202.246 16.3755 202.129 16.8063 202.129 16.9848C202.068 17.7417 202.671 18.4679 202.837 18.7694C203.551 19.8217 203.951 20.6586 204.105 20.954C204.129 21.0094 204.166 21.0586 204.129 21.1325C204.117 21.1509 203.514 22.2094 204.511 23.7294C204.917 24.5109 205.502 26.2525 205.508 26.2648C205.742 26.5109 205.194 26.3571 205.139 26.9294C204.745 27.0832 201.779 29.354 201.108 29.9571C200.843 30.0371 200.499 30.0248 200.382 30.3571C200.363 30.3817 200.259 30.6771 200.197 30.7509C199.914 31.0771 199.575 31.6679 199.514 32.2402C199.446 32.5355 199.52 33.1079 199.865 33.2555C200.019 33.3232 200.086 33.274 200.123 33.2555C200.166 33.2309 200.363 32.7079 200.388 32.6525C200.622 32.0802 200.972 31.9263 201.772 31.1263C202.172 31.2371 202.351 31.4709 202.757 31.5755C203.871 30.5417 204.991 29.594 206.086 28.5355C205.92 30.1786 205.76 31.8648 205.766 32.314C205.692 32.6032 205.686 33.0955 205.889 33.3417C205.889 33.3417 207.711 33.4463 208.062 33.4217C208.234 33.4094 208.246 33.3048 208.246 33.3048C208.246 33.3048 208.406 33.0586 207.969 32.7325C207.84 32.6402 207.532 32.2586 207.299 32.0986C207.612 32.0309 207.945 31.9755 208.019 31.9755C207.932 31.114 207.914 29.2432 207.852 26.8063C207.582 24.2771 207.557 23.4279 206.302 18.2463C207.194 17.2309 207.157 16.6032 208.012 15.5571C208.468 14.6648 209.175 12.8371 209.483 11.8709ZM205.686 16.5479C205.668 16.474 205.526 16.1171 205.459 15.9263C205.452 15.9017 206.597 15.1509 206.597 15.1509C206.597 15.1509 206.609 15.2125 206.622 15.2863C206.622 15.2863 205.846 16.4432 205.686 16.5479Z" fill="white"/>
<path d="M198.523 30.2218C198.486 30.2218 198.338 30.2094 198.338 30.0433V29.871C198.338 29.6064 198.32 29.3294 198.191 29.0771C198.16 29.0156 198.123 28.9664 198.086 28.9171C198.099 28.9048 198.117 28.8987 198.129 28.8925L198.135 28.8864L198.142 28.8802C198.431 28.6341 198.579 28.3018 198.579 27.8956C198.579 27.6187 198.511 27.3356 198.382 27.0894V27.0771L198.375 27.0648C198.197 26.7633 197.932 26.5602 197.582 26.4556C198.055 26.1725 198.302 25.6987 198.302 25.0218C198.302 25.0218 198.302 22.9848 198.302 22.8433C198.394 22.8433 198.868 22.8433 198.868 22.8433L198.862 21.4218H198.406H197.526C198.302 20.991 198.745 20.1848 198.745 19.1141C198.745 17.9387 198.24 17.2187 197.551 16.8248H198.068V15.5079C198.068 15.5079 197.255 15.5079 197.065 15.5079C197.065 15.391 197.065 13.5018 197.065 13.1387C197.286 13.151 197.44 13.3787 197.458 13.7294L197.477 14.1664L198.855 14.1725V11.7048H198.486H193.249V14.1725L194.634 14.1664L194.652 13.7294C194.665 13.3787 194.819 13.151 195.046 13.1387C195.046 13.5079 195.046 15.391 195.046 15.5079C194.855 15.5079 194.043 15.5079 194.043 15.5079V16.831H194.474C193.785 17.2248 193.28 17.9448 193.28 19.1202C193.28 20.191 193.723 20.991 194.498 21.4279H193.286V22.8495C193.286 22.8495 193.772 22.8495 193.858 22.8495C193.858 22.9171 193.858 25.1633 193.858 25.1633C193.858 25.6002 194.062 26.0556 194.554 26.3633H193.274L193.268 27.7664C193.268 27.7664 193.692 27.7725 193.815 27.7664C193.815 27.7848 193.914 27.7664 193.895 27.8648C193.895 28.2587 193.895 29.6679 193.895 30.1048C193.895 30.2218 193.809 30.1848 193.809 30.2094C193.692 30.2094 193.268 30.2094 193.268 30.2094V31.6002H196.671V31.1941C196.935 31.4833 197.311 31.631 197.809 31.631H198.979V30.2218H198.523ZM195.914 22.8495H196.739C196.739 22.8495 196.806 22.8556 196.806 22.9171C196.806 22.9787 196.806 24.7818 196.806 25.0648C196.806 25.2187 196.671 25.3418 196.332 25.3418C195.994 25.3418 195.822 25.2187 195.822 25.0648C195.822 25.0648 195.822 22.9725 195.822 22.9171C195.834 22.8618 195.914 22.8495 195.914 22.8495ZM196.585 19.1202C196.585 19.9694 196.4 20.4002 196.031 20.4002C195.852 20.4002 195.477 20.4002 195.477 19.1202C195.477 17.8402 195.865 17.8402 196.031 17.8402C196.265 17.8402 196.585 17.8402 196.585 19.1202ZM195.926 30.2094C195.834 30.2094 195.828 30.1233 195.828 30.1233V29.5818H196.185C196.295 29.5818 196.351 29.6002 196.351 29.7233C196.351 29.7541 196.351 29.9818 196.351 29.9818C196.351 30.0495 196.345 30.1418 196.351 30.2094C196.345 30.2094 196.019 30.2094 195.926 30.2094ZM195.834 28.2402V27.6556H196.388C196.548 27.6556 196.659 27.7725 196.659 27.9387C196.659 28.1233 196.517 28.2402 196.388 28.2402H195.834Z" fill="white"/>
<path d="M198.394 12.074H193.612V13.7971H194.265L194.271 13.7109C194.295 13.0524 194.677 12.7571 195.046 12.7571C195.286 12.7571 195.403 12.8063 195.403 12.9047V15.5694C195.403 15.7109 195.311 15.8709 195.175 15.8709H194.4V16.4555H197.692V15.8771H196.923C196.788 15.8771 196.695 15.7171 196.695 15.5755V12.9109C196.695 12.8124 196.812 12.7632 197.052 12.7632C197.422 12.7632 197.803 13.0586 197.828 13.7171L197.834 13.8032H198.486V12.0801H198.394V12.074Z" fill="#EC2025"/>
<path d="M198.492 21.7971H198.406H196.615H196.529V22.4802H196.899C197.022 22.4802 197.102 22.4987 197.145 22.5417C197.188 22.5848 197.194 22.6525 197.188 22.7633V22.8187V25.1817C197.175 25.2987 197.065 25.7048 196.345 25.7048C195.797 25.7048 195.465 25.4956 195.465 25.1387V22.7756C195.465 22.5048 195.594 22.4802 195.711 22.4802H196.148V21.7971H193.649V22.4802H193.932C194.055 22.4802 194.135 22.4987 194.179 22.5417C194.228 22.591 194.222 22.671 194.222 22.7633V22.8187V25.1633C194.222 25.754 194.751 26.3879 196.228 26.3879C197.735 26.3879 197.926 25.6617 197.926 25.0279V22.7756C197.926 22.5048 198.055 22.4802 198.172 22.4802H198.492V21.7971Z" fill="#EC2025"/>
<path d="M196.006 16.8247C194.862 16.8247 193.637 17.4032 193.637 19.1201C193.637 20.5786 194.523 21.4155 196.006 21.4155C197.489 21.4155 198.375 20.5786 198.375 19.1201C198.375 17.4032 197.151 16.8247 196.006 16.8247ZM196.031 20.7693C195.631 20.7693 195.108 20.6278 195.108 19.1201C195.108 17.9878 195.409 17.4709 196.031 17.4709C196.689 17.4709 196.954 17.9262 196.954 19.1201C196.96 20.2216 196.64 20.7693 196.031 20.7693Z" fill="#EC2025"/>
<path d="M198.535 30.5726C198.369 30.5726 197.988 30.5603 197.988 30.0434V29.8711C197.988 29.668 197.982 29.4342 197.877 29.2434C197.785 29.0403 197.545 28.9234 197.415 28.8618C197.582 28.8065 197.766 28.7142 197.92 28.5972C198.117 28.4249 198.228 28.1972 198.228 27.8957C198.228 27.6803 198.172 27.4526 198.074 27.2618C197.859 26.9049 197.502 26.7449 196.935 26.7449L193.649 26.7388V27.4095C193.649 27.4095 193.889 27.4095 194.074 27.4095C194.259 27.4095 194.283 27.5942 194.283 27.5942C194.283 27.5942 194.289 29.6742 194.289 30.3511C194.289 30.4618 194.185 30.5788 194.086 30.5788H193.649V31.2495H196.369V30.5788H195.692C195.594 30.5788 195.477 30.4495 195.477 30.3388C195.477 30.3388 195.477 29.508 195.477 29.2372C195.508 29.2372 196.283 29.2372 196.283 29.2372C196.375 29.2372 196.72 29.2803 196.714 29.6988L196.708 29.988C196.714 30.2403 196.683 30.4434 196.794 30.7265C196.979 31.1018 197.311 31.2865 197.815 31.2865H198.615V30.5972L198.535 30.5726ZM195.465 27.2865C195.6 27.2865 196.074 27.2865 196.419 27.2865C196.726 27.2865 196.948 27.4218 197.009 27.6618C197.046 27.8095 197.052 28.0434 196.985 28.228C196.892 28.4742 196.695 28.6034 196.412 28.6034C196.412 28.6034 195.674 28.6034 195.465 28.6034C195.465 28.4557 195.465 27.4157 195.465 27.3911V27.2865V27.2865Z" fill="#EC2025"/>
<path d="M60.197 16.9232C60.197 21.2555 57.317 23.9201 52.6216 23.9201H48.5354V29.1324H43.3231V9.92627H52.6216C57.317 9.92627 60.197 12.5847 60.197 16.9232ZM55.0154 16.9478C55.0154 15.4401 54.0308 14.4801 52.4062 14.4801H48.48V19.4217H52.4062C54.0247 19.4155 55.0154 18.4555 55.0154 16.9478Z" fill="black"/>
<path d="M80.2277 17.5261V26.3077C78.3877 28.3938 75.3169 29.6 71.7477 29.6C65.4892 29.6 61.5139 25.6738 61.5139 19.5323C61.5139 13.5508 65.7662 9.43384 72.1292 9.43384C75.1446 9.43384 77.4769 10.3692 79.5631 12.6154L76.4615 15.6061C75.3108 14.4554 73.7169 13.8215 72.0739 13.8215C68.5908 13.8215 66.6154 15.9077 66.6154 19.5261C66.6154 22.9538 68.7262 25.2308 71.8831 25.2308C73.5569 25.2308 75.0092 24.7631 75.9446 23.9692V21.5261H70.8431V17.52H80.2277V17.5261Z" fill="black"/>
<path d="M95.8523 25.9509H86.9354L85.6431 29.1324H80.0739L88.6892 9.92627H94.1785L102.738 29.1324H97.1139L95.8523 25.9509ZM91.4031 14.8063L88.6892 21.557H94.0677L91.4031 14.8063Z" fill="black"/>
<path d="M122.714 14.3693H117.058V29.1324H111.846V14.3693H106.197V9.92627H122.714V14.3693Z" fill="black"/>
<path d="M123.083 19.5262C123.083 13.3785 127.225 9.42773 133.674 9.42773C140.123 9.42773 144.265 13.3785 144.265 19.5262C144.265 25.6739 140.123 29.6247 133.674 29.6247C127.225 29.6247 123.083 25.6739 123.083 19.5262ZM139.052 19.5262C139.052 16.1785 136.942 14.0124 133.674 14.0124C130.406 14.0124 128.295 16.1785 128.295 19.5262C128.295 22.8739 130.406 25.04 133.674 25.04C136.935 25.04 139.052 22.8739 139.052 19.5262Z" fill="black"/>
<path d="M146.142 20.677V9.92627H151.354V20.677C151.354 23.4217 152.695 25.0093 155.114 25.0093C157.471 25.0093 158.874 23.4155 158.874 20.677V9.92627H164.086V20.677C164.086 26.3263 160.874 29.5386 155.114 29.5386C149.354 29.5447 146.142 26.3324 146.142 20.677Z" fill="black"/>
<path d="M172.935 22.9293H171.015V29.1324H165.803V9.92627H175.323C179.575 9.92627 182.32 12.6155 182.32 16.5109C182.32 19.3355 180.923 21.4217 178.259 22.4124L183.502 29.1324H177.409L172.935 22.9293ZM174.529 14.2586H170.96V18.9232H174.529C176.258 18.9232 177.188 18.0986 177.188 16.5909C177.188 15.0832 176.258 14.2586 174.529 14.2586Z" fill="black"/>
</g>
<defs>
<clipPath id="clip0">
<rect width="214.154" height="40" fill="white"/>
</clipPath>
</defs>
</svg>
